<svg width="627" height="663" viewBox="0 0 627 663" fill="none" xmlns="http://www.w3.org/2000/svg">
<mask id="mask0_547_2" style="mask-type:luminance" maskUnits="userSpaceOnUse" x="0" y="0" width="627" height="664">
<path d="M626.528 0H0V663.009H626.528V0Z" fill="white"/>
</mask>
<g mask="url(#mask0_547_2)">
<path d="M426.657 40.9861C415.295 35.191 406.066 25.8893 400.317 14.4374C396.099 6.41663 393.075 0 386.31 0C379.548 0 376.443 6.09579 372.225 14.4374C366.537 25.8525 357.397 35.1498 346.123 40.9861C338.165 45.1569 331.799 48.2049 331.799 55.1025C331.799 62.0006 337.847 65.0481 346.123 69.2993C357.497 75.041 366.733 84.3222 372.463 95.7677C376.681 103.789 379.706 110.205 386.55 110.205C393.393 110.205 396.339 104.19 400.557 95.7677C406.287 84.3222 415.523 75.041 426.897 69.2993C434.855 65.0481 441.221 62.0006 441.221 55.1025C441.221 48.2049 434.935 45.1569 426.657 40.9861ZM386.31 88.2284C379.043 74.0076 367.553 62.4272 353.445 55.1025C367.573 47.8043 379.069 36.217 386.31 21.9769C393.531 36.2332 405.032 47.8266 419.177 55.1025C405.048 62.4007 393.552 73.9881 386.31 88.2284Z" fill="#4056F4"/>
<path d="M487.236 14.5435C483.205 12.4871 479.929 9.18657 477.893 5.12293C476.396 2.27686 475.322 0 472.922 0C470.522 0 469.421 2.16303 467.924 5.12293C465.906 9.1735 462.663 12.4725 458.661 14.5435C455.837 16.0234 453.578 17.1049 453.578 19.5526C453.578 22.0002 455.724 23.0816 458.661 24.5902C462.7 26.6276 465.975 29.9207 468.007 33.9821C469.504 36.8283 470.577 39.1051 473.005 39.1051C475.433 39.1051 476.479 36.9705 477.976 33.9821C480.007 29.9207 483.288 26.6276 487.323 24.5902C490.147 23.0816 492.404 22.0002 492.404 19.5526C492.404 17.1049 490.175 16.0234 487.236 14.5435ZM472.922 31.3068C470.342 26.2607 466.265 22.1516 461.258 19.5526C466.275 16.9628 470.352 12.8512 472.922 7.79824C475.484 12.8569 479.565 16.9708 484.582 19.5526C479.57 22.1422 475.493 26.2539 472.922 31.3068Z" fill="#4056F4"/>
<path d="M599.705 98.1793C581.476 88.7614 566.638 73.8196 557.29 55.4593C550.219 41.037 543.875 28.4402 529.373 28.4402C514.871 28.4402 508.711 41.037 501.46 55.4593C492.237 73.8511 477.445 88.8119 459.224 98.1793C444.722 105.482 432.396 111.689 432.396 126.294C432.396 140.899 444.722 147.106 459.224 154.409C477.468 163.656 492.279 178.57 501.46 196.946C508.711 211.552 515.055 223.966 529.373 223.966C543.875 223.966 550.219 211.552 557.47 196.946C566.651 178.57 581.458 163.656 599.705 154.409C614.208 147.106 626.531 140.717 626.531 126.294C626.531 111.872 614.208 105.482 599.705 98.1793ZM529.373 172.483C518.234 153.411 502.451 137.514 483.512 126.294C502.368 114.968 518.128 99.095 529.373 80.1056C540.72 99.0162 556.456 114.867 575.234 126.294C556.378 137.621 540.618 153.493 529.373 172.483Z" fill="#4056F4"/>
<path d="M478.296 549.607C475.223 546.519 474.864 541.637 477.31 538.025C545.012 438.075 534.849 300.656 446.796 211.974C357.114 121.65 217.26 112.695 117.622 185.063C113.805 187.836 108.477 187.303 105.435 183.686C95.2137 171.531 85.2924 159.457 76.0346 147.765C72.7319 143.594 66.5556 143.216 62.8098 146.988L23.1907 186.89C19.4322 190.676 19.8254 196.923 24.0051 200.231C35.5568 209.37 47.5262 219.111 59.5882 229.143C63.2774 232.211 63.8251 237.686 60.9887 241.566C-12.446 342.051 -4.04257 484.173 86.2456 575.089C174.006 663.478 309.823 673.947 408.973 606.51C412.558 604.071 417.38 604.442 420.438 607.525L434.622 621.81C435.755 622.95 437.174 623.762 438.729 624.151L510.769 642.22C513.413 642.883 515.777 640.411 515.012 637.778L494.687 567.647C494.267 566.215 493.498 564.907 492.448 563.85L478.296 549.607ZM349.303 404.892C346.538 409.713 340.015 410.324 336.105 406.387L228.48 297.992C225.035 294.52 225.035 288.894 228.48 285.423L261.455 252.212C264.902 248.74 264.902 243.114 261.455 239.643L248.612 226.707C243.201 221.258 246.816 212.335 254.408 213.288C336.065 223.539 397.608 320.729 349.303 404.892ZM232.34 212.684H232.33L184.916 260.452C181.346 264.048 175.513 263.901 172.132 260.124C169.513 257.196 166.862 254.229 164.185 251.227C160.834 247.469 161.26 241.636 165.302 238.646C187.41 222.295 210.277 214.241 232.335 212.696L232.34 212.684ZM116.125 289.977C119.12 285.899 125.014 285.25 128.799 288.597C131.484 290.97 134.139 293.324 136.759 295.652C140.567 299.04 140.743 304.961 137.151 308.58L93.9326 352.12C90.4876 355.591 90.4876 361.219 93.9335 364.689L115.632 386.541C119.078 390.013 124.667 390.013 128.112 386.541L158.322 356.103C161.768 352.632 167.356 352.63 170.803 356.102L406.025 593.008C409.952 596.963 409.224 603.617 404.486 606.533C209.362 726.542 -30.674 489.908 116.125 289.977Z" fill="#4056F4"/>
</g>
</svg>
