<svg width="50" height="53" viewBox="0 0 50 53" fill="none" xmlns="http://www.w3.org/2000/svg">
<mask id="mask0_190_143" style="mask-type:luminance" maskUnits="userSpaceOnUse" x="0" y="0" width="50" height="53">
<path d="M49.4805 0H0V52.3399H49.4805V0Z" fill="#4056F4"/>
</mask>
<g mask="url(#mask0_190_143)">
<path d="M33.6956 3.23556C32.7983 2.77808 32.0694 2.04378 31.6153 1.13973C31.2822 0.506547 31.0434 0 30.5092 0C29.9751 0 29.7299 0.481219 29.3968 1.13973C28.9476 2.04087 28.2257 2.77483 27.3354 3.23556C26.7069 3.56482 26.2041 3.80544 26.2041 4.34996C26.2041 4.89451 26.6818 5.13509 27.3354 5.47069C28.2336 5.92396 28.963 6.65664 29.4156 7.56018C29.7487 8.19339 29.9876 8.69991 30.5282 8.69991C31.0685 8.69991 31.3012 8.22505 31.6343 7.56018C32.0869 6.65664 32.8163 5.92396 33.7146 5.47069C34.343 5.13509 34.8458 4.89451 34.8458 4.34996C34.8458 3.80544 34.3493 3.56482 33.6956 3.23556ZM30.5092 6.96501C29.9352 5.84237 29.0278 4.92818 27.9136 4.34996C29.0294 3.77381 29.9373 2.85907 30.5092 1.73492C31.0794 2.86035 31.9878 3.77557 33.1049 4.34996C31.989 4.9261 31.0811 5.84084 30.5092 6.96501Z" fill="#4056F4"/>
<path d="M38.4794 1.1481C38.1611 0.985768 37.9024 0.725215 37.7416 0.404419C37.6233 0.179742 37.5386 0 37.349 0C37.1594 0 37.0725 0.170756 36.9542 0.404419C36.7949 0.724182 36.5388 0.984619 36.2227 1.1481C35.9997 1.26493 35.8213 1.35031 35.8213 1.54354C35.8213 1.73676 35.9908 1.82213 36.2227 1.94122C36.5417 2.10206 36.8003 2.36203 36.9608 2.68265C37.079 2.90733 37.1638 3.08707 37.3556 3.08707C37.5473 3.08707 37.6299 2.91856 37.7481 2.68265C37.9086 2.36203 38.1676 2.10206 38.4863 1.94122C38.7094 1.82213 38.8876 1.73676 38.8876 1.54354C38.8876 1.35031 38.7115 1.26493 38.4794 1.1481ZM37.349 2.47145C37.1453 2.07309 36.8233 1.74871 36.4278 1.54354C36.824 1.3391 37.146 1.01451 37.349 0.615616C37.5513 1.01496 37.8736 1.33972 38.2698 1.54354C37.874 1.74797 37.552 2.07256 37.349 2.47145Z" fill="#4056F4"/>
<path d="M47.3618 7.75053C45.9221 7.00705 44.7502 5.8275 44.012 4.37808C43.4535 3.23955 42.9526 2.24512 41.8072 2.24512C40.6619 2.24512 40.1755 3.23955 39.6028 4.37808C38.8744 5.82998 37.7062 7.01104 36.2672 7.75053C35.1219 8.32704 34.1484 8.81702 34.1484 9.97C34.1484 11.123 35.1219 11.613 36.2672 12.1895C37.708 12.9194 38.8777 14.0968 39.6028 15.5475C40.1755 16.7005 40.6765 17.6805 41.8072 17.6805C42.9526 17.6805 43.4535 16.7005 44.0262 15.5475C44.7513 14.0968 45.9207 12.9194 47.3618 12.1895C48.5071 11.613 49.4804 11.1086 49.4804 9.97C49.4804 8.83144 48.5071 8.32704 47.3618 7.75053ZM41.8072 13.6163C40.9275 12.1107 39.681 10.8557 38.1853 9.97C39.6745 9.07586 40.9191 7.82282 41.8072 6.32374C42.7033 7.81659 43.9462 9.06792 45.4291 9.97C43.94 10.8641 42.6953 12.1172 41.8072 13.6163Z" fill="#4056F4"/>
<path d="M37.7739 43.3876C37.5312 43.1438 37.5028 42.7584 37.696 42.4733C43.0429 34.5829 42.2402 23.7347 35.2862 16.7339C28.2035 9.60341 17.1584 8.89653 9.2894 14.6094C8.98794 14.8284 8.56721 14.7863 8.32697 14.5007C7.51971 13.5412 6.73617 12.588 6.00502 11.665C5.74419 11.3358 5.25641 11.3059 4.96058 11.6037L1.83163 14.7537C1.53481 15.0526 1.56586 15.5457 1.89596 15.8068C2.80826 16.5283 3.75355 17.2973 4.70616 18.0893C4.99751 18.3315 5.04077 18.7637 4.81676 19.07C-0.982802 27.0025 -0.319131 38.222 6.81145 45.3992C13.7424 52.3769 24.4687 53.2033 32.2991 47.8797C32.5822 47.6871 32.963 47.7164 33.2046 47.9598L34.3248 49.0875C34.4142 49.1775 34.5263 49.2416 34.6491 49.2723L40.3385 50.6987C40.5474 50.751 40.734 50.556 40.6736 50.3481L39.0684 44.8117C39.0353 44.6986 38.9745 44.5954 38.8916 44.512L37.7739 43.3876ZM27.5866 31.9634C27.3682 32.3439 26.8531 32.3922 26.5443 32.0814L18.0445 23.5243C17.7725 23.2503 17.7725 22.8062 18.0445 22.5321L20.6488 19.9104C20.921 19.6363 20.921 19.1922 20.6488 18.9181L19.6345 17.8969C19.2071 17.4668 19.4926 16.7624 20.0922 16.8376C26.5411 17.6468 31.4015 25.3193 27.5866 31.9634ZM18.3494 16.7899H18.3486L14.6041 20.5609C14.3221 20.8448 13.8614 20.8331 13.5944 20.5349C13.3876 20.3038 13.1782 20.0696 12.9668 19.8326C12.7021 19.536 12.7358 19.0755 13.055 18.8394C14.801 17.5486 16.607 16.9128 18.349 16.7909L18.3494 16.7899ZM9.17123 22.8916C9.40772 22.5697 9.87324 22.5185 10.1722 22.7827C10.3842 22.9701 10.5938 23.1558 10.8007 23.3397C11.1016 23.6071 11.1155 24.0745 10.8317 24.3602L7.41853 27.7974C7.14646 28.0714 7.14646 28.5157 7.4186 28.7896L9.13223 30.5147C9.40445 30.7888 9.84577 30.7888 10.1179 30.5147L12.5037 28.1118C12.7759 27.8378 13.2172 27.8377 13.4894 28.1117L32.0662 46.8138C32.3764 47.126 32.3189 47.6513 31.9447 47.8815C16.5346 57.3554 -2.42237 38.6748 9.17123 22.8916Z" fill="#4056F4"/>
</g>
</svg>
