<?xml version="1.0" encoding="iso-8859-1"?>
<!-- Uploaded to: SVG Repo, www.svgrepo.com, Generator: SVG Repo Mixer Tools -->
<svg fill="#2B2D42" height="800px" width="800px" version="1.1" id="Layer_1" xmlns="http://www.w3.org/2000/svg" xmlns:xlink="http://www.w3.org/1999/xlink" 
	 viewBox="0 0 512.002 512.002" xml:space="preserve">
<g>
	<g>
		<path d="M284.071,100.146c-0.176-0.868-0.434-1.723-0.773-2.551c-0.339-0.814-0.76-1.601-1.248-2.333
			c-0.488-0.746-1.058-1.438-1.682-2.062s-1.316-1.194-2.062-1.696c-0.733-0.488-1.519-0.895-2.347-1.235
			c-0.814-0.339-1.669-0.61-2.537-0.787c-1.75-0.339-3.541-0.339-5.291,0c-0.868,0.176-1.723,0.448-2.551,0.787
			c-0.814,0.339-1.601,0.746-2.333,1.235c-0.746,0.502-1.438,1.072-2.062,1.696c-0.624,0.624-1.194,1.316-1.696,2.062
			c-0.488,0.733-0.895,1.519-1.235,2.333c-0.339,0.828-0.611,1.682-0.787,2.551c-0.163,0.868-0.258,1.764-0.258,2.646
			s0.095,1.777,0.258,2.646c0.176,0.868,0.448,1.723,0.787,2.537c0.339,0.828,0.746,1.614,1.235,2.347
			c0.502,0.746,1.072,1.438,1.696,2.062c0.624,0.624,1.316,1.194,2.062,1.682c0.733,0.488,1.519,0.909,2.333,1.248
			c0.828,0.339,1.682,0.597,2.551,0.773c0.868,0.176,1.764,0.271,2.646,0.271s1.777-0.095,2.646-0.271
			c0.868-0.176,1.723-0.434,2.537-0.773c0.828-0.339,1.614-0.76,2.347-1.248c0.746-0.488,1.438-1.058,2.062-1.682
			s1.194-1.316,1.682-2.062c0.488-0.733,0.909-1.519,1.248-2.347c0.339-0.814,0.597-1.669,0.773-2.537
			c0.176-0.868,0.271-1.764,0.271-2.646S284.247,101.015,284.071,100.146z"/>
	</g>
</g>
<g>
	<g>
		<path d="M256.65,60.57c-30.762-23.31-74.56-20.293-101.873,7.021c-5.298,5.298-5.298,13.888,0,19.187
			c2.648,2.648,6.12,3.972,9.593,3.972c3.472,0,6.945-1.324,9.593-3.974c17.779-17.779,46.283-19.749,66.302-4.581
			c5.971,4.526,14.481,3.352,19.005-2.62C263.794,73.603,262.622,65.094,256.65,60.57z"/>
	</g>
</g>
<g>
	<g>
		<path d="M296.437,35.854c-47.806-47.805-125.592-47.806-173.398,0c-44.562,44.562-47.565,115.165-9.05,163.261l-56.402,56.402
			v-18.257c0-7.493-6.074-13.567-13.567-13.567s-13.567,6.074-13.567,13.567v51.009c0,7.493,6.074,13.567,13.567,13.567h51.009
			c7.493,0,13.567-6.074,13.567-13.567c0-7.493-6.072-13.565-13.565-13.565H76.775l56.398-56.399
			c21.666,17.392,48.383,26.859,76.566,26.859c32.751,0,63.541-12.754,86.698-35.912c23.158-23.158,35.912-53.948,35.912-86.699
			C332.349,89.802,319.595,59.012,296.437,35.854z M277.251,190.066c-18.033,18.033-42.009,27.965-67.512,27.965
			c-25.503,0-49.48-9.932-67.513-27.965c-37.227-37.227-37.227-97.798,0-135.025c18.616-18.616,43.061-27.92,67.513-27.92
			c24.447,0,48.901,9.309,67.512,27.92c18.033,18.033,27.965,42.009,27.965,67.513C305.216,148.058,295.284,172.033,277.251,190.066
			z"/>
	</g>
</g>
<g>
	<g>
		<path d="M251.972,406.563c-0.176-0.868-0.434-1.723-0.773-2.537c-0.339-0.828-0.76-1.614-1.248-2.347
			c-0.488-0.746-1.058-1.438-1.682-2.062c-0.624-0.624-1.316-1.194-2.062-1.682c-0.733-0.488-1.519-0.909-2.347-1.248
			c-0.814-0.339-1.669-0.597-2.537-0.773c-1.75-0.353-3.554-0.353-5.305,0c-0.855,0.176-1.709,0.434-2.537,0.773
			c-0.814,0.339-1.601,0.76-2.333,1.248c-0.746,0.488-1.438,1.058-2.062,1.682c-0.624,0.624-1.194,1.316-1.696,2.062
			c-0.488,0.733-0.909,1.519-1.248,2.347c-0.339,0.814-0.597,1.669-0.773,2.537c-0.176,0.868-0.258,1.764-0.258,2.646
			s0.081,1.777,0.258,2.659c0.176,0.855,0.434,1.709,0.773,2.537c0.339,0.814,0.76,1.601,1.248,2.333
			c0.502,0.746,1.072,1.438,1.696,2.062c0.624,0.624,1.316,1.194,2.062,1.696c0.733,0.488,1.519,0.895,2.333,1.235
			c0.828,0.339,1.682,0.61,2.537,0.787c0.882,0.176,1.777,0.258,2.659,0.258c0.882,0,1.777-0.081,2.645-0.258
			c0.868-0.176,1.723-0.448,2.537-0.787c0.828-0.339,1.614-0.746,2.347-1.235c0.746-0.502,1.438-1.072,2.062-1.696
			c0.624-0.624,1.194-1.316,1.682-2.062c0.488-0.733,0.909-1.519,1.248-2.333c0.339-0.828,0.597-1.682,0.773-2.537
			c0.176-0.882,0.271-1.777,0.271-2.659C252.243,408.327,252.148,407.431,251.972,406.563z"/>
	</g>
</g>
<g>
	<g>
		<path d="M354.672,425.222c-5.298-5.296-13.888-5.296-19.187,0.001c-17.778,17.78-46.284,19.748-66.3,4.581
			c-5.969-4.524-14.481-3.354-19.006,2.62c-4.524,5.972-3.352,14.481,2.62,19.005c13.861,10.503,30.362,15.66,46.816,15.66
			c20.064,0,40.05-7.675,55.058-22.681C359.969,439.112,359.969,430.522,354.672,425.222z"/>
	</g>
</g>
<g>
	<g>
		<path d="M477.575,267.701l-18.467-18.467l15.612-15.612c5.298-5.298,5.298-13.888,0-19.187c-5.298-5.298-13.888-5.298-19.187,0
			l-15.612,15.612l-18.467-18.467c-5.298-5.298-13.888-5.298-19.187,0c-5.298,5.298-5.298,13.888,0,19.187l18.467,18.467
			l-44.462,44.462c-21.665-17.392-48.381-26.859-76.565-26.859c-32.751,0-63.541,12.754-86.699,35.912
			c-47.805,47.806-47.805,125.592,0,173.398c23.903,23.903,55.3,35.854,86.699,35.854s62.796-11.951,86.699-35.854
			c23.158-23.158,35.912-53.949,35.912-86.699c0-28.183-9.467-54.9-26.859-76.565l44.461-44.461l18.467,18.467
			c2.65,2.65,6.121,3.974,9.593,3.974s6.945-1.324,9.593-3.974C482.874,281.59,482.874,272.999,477.575,267.701z M367.221,456.96
			c-37.226,37.227-97.798,37.227-135.025,0c-37.227-37.227-37.227-97.799,0-135.025c18.033-18.033,42.009-27.965,67.513-27.965
			c25.501,0,49.475,9.931,67.508,27.961c0.001,0.001,0.003,0.003,0.004,0.004c0.001,0.001,0.003,0.003,0.004,0.004
			c18.03,18.033,27.961,42.006,27.961,67.508C395.186,414.951,385.255,438.927,367.221,456.96z"/>
	</g>
</g>
</svg>