<svg width="29" height="29" viewBox="0 0 29 29" fill="none" xmlns="http://www.w3.org/2000/svg">
<path d="M9.58915 14.4637C9.36257 14.2369 9.05521 14.1095 8.73468 14.1094C8.41414 14.1093 8.10669 14.2365 7.87996 14.4631C7.65323 14.6896 7.52579 14.997 7.52567 15.3175C7.52556 15.6381 7.65278 15.9455 7.87935 16.1722L8.33006 16.6217L3.98731 20.9645C3.75533 21.1965 3.625 21.5112 3.625 21.8393C3.625 22.1674 3.75533 22.4821 3.98731 22.7142L6.28315 25.01C6.51518 25.242 6.82986 25.3723 7.15798 25.3723C7.48609 25.3723 7.80078 25.242 8.03281 25.01L12.3744 20.6685L12.8239 21.118C12.9361 21.2301 13.0694 21.3191 13.216 21.3798C13.3627 21.4405 13.5199 21.4717 13.6786 21.4716C13.8373 21.4716 13.9944 21.4403 14.141 21.3795C14.2877 21.3187 14.4209 21.2296 14.533 21.1173C14.6452 21.0051 14.7342 20.8718 14.7949 20.7252C14.8556 20.5785 14.8868 20.4213 14.8867 20.2626C14.8867 20.1039 14.8554 19.9468 14.7946 19.8002C14.7338 19.6535 14.6447 19.5203 14.5324 19.4082L9.58915 14.4637Z" fill="#fff"/>
<path d="M17.2796 3.625L10.8936 13.2047L15.7946 18.1069L25.3754 11.7208V3.625H17.2796Z" fill="#fff"/>
</svg>
