<svg width="73" height="73" viewBox="0 0 73 73" fill="none" xmlns="http://www.w3.org/2000/svg">
<g clip-path="url(#clip0_1146_376)">
<path fill-rule="evenodd" clip-rule="evenodd" d="M36.5 20.5313C40.28 20.5313 43.3438 23.595 43.3438 27.375C43.3438 31.155 40.28 34.2188 36.5 34.2188C32.72 34.2188 29.6562 31.155 29.6562 27.375C29.6562 23.595 32.72 20.5313 36.5 20.5313ZM36.5 38.7813C42.7985 38.7813 47.9062 33.6758 47.9062 27.375C47.9062 21.0742 42.7985 15.9688 36.5 15.9688C30.2015 15.9688 25.0938 21.0742 25.0938 27.375C25.0938 33.6758 30.2015 38.7813 36.5 38.7813ZM36.5 0C51.6178 0 63.875 12.2572 63.875 27.375C63.875 38.8223 41.0511 73.0251 36.5 73C32.0196 73.0251 9.125 38.6672 9.125 27.375C9.125 12.2572 21.3822 0 36.5 0Z" fill="white"/>
</g>
<defs>
<clipPath id="clip0_1146_376">
<rect width="73" height="73" fill="white" transform="matrix(-1 0 0 1 73 0)"/>
</clipPath>
</defs>
</svg>
