<svg width="61" height="61" viewBox="0 0 61 61" fill="none" xmlns="http://www.w3.org/2000/svg">
<g clip-path="url(#clip0_1101_264)">
<path d="M58.5866 33.6041C59.1363 32.8973 59.4033 31.9864 59.1599 31.0572L51.9431 3.70348C51.5244 2.12243 49.8988 1.17494 48.3204 1.59371L2.20658 13.7523C0.633419 14.1686 -0.316739 15.7994 0.0968163 17.3777L7.31352 44.7288C7.72708 46.3072 9.36043 47.2548 10.9389 46.8412L27.2333 42.5432V51.7021C27.2333 56.8247 35.7221 59.5052 44.1141 59.5052C52.5009 59.5052 61.0001 56.8247 61.0001 51.7022V37.8132C61 36.1457 60.0865 34.7427 58.5866 33.6041ZM53.3645 24.1756L54.1183 27.0235L44.9515 29.4447L44.2029 26.5916L53.3645 24.1756ZM48.0456 6.15617L49.4773 11.5798L35.1565 15.3596L33.7248 9.93593L48.0456 6.15617ZM41.6194 27.2721L42.3524 30.0572C38.9626 30.209 35.6645 30.8006 33.0155 31.8109L32.4553 29.6959L41.6194 27.2721ZM9.70591 38.7371L8.95731 35.8944L18.1214 33.4705L18.8752 36.3288L9.70591 38.7371ZM20.705 32.7926L29.8639 30.3714L30.5576 32.9811C30.335 33.1172 30.1257 33.2585 29.9215 33.4025L21.4536 35.6379L20.705 32.7926ZM57.9427 51.4769C57.9427 54.4635 51.7548 56.8822 44.1141 56.8822C36.4813 56.8822 30.288 54.461 30.288 51.4769V48.1133C30.288 48.0007 30.3535 47.8987 30.3718 47.7914C30.8089 50.6237 36.7613 52.8695 44.1141 52.8695C51.4695 52.8695 57.4244 50.6236 57.859 47.7914C57.8773 47.8987 57.9427 48.0009 57.9427 48.1133V51.4769ZM57.9427 44.8596C57.9427 47.8437 51.7548 50.2623 44.1141 50.2623C36.4813 50.2623 30.288 47.8437 30.288 44.8596V41.4961C30.288 41.3861 30.3535 41.2814 30.3718 41.1742C30.8089 44.0038 36.7613 46.2549 44.1141 46.2549C51.4695 46.2549 57.4244 44.0038 57.859 41.1742C57.8773 41.2814 57.9427 41.3861 57.9427 41.4961V44.8596ZM44.114 43.2132C36.4812 43.2132 30.2879 40.7946 30.2879 37.813C30.2879 34.8316 36.4811 32.413 44.114 32.413C51.7547 32.413 57.9426 34.8316 57.9426 37.813C57.9427 40.7946 51.7547 43.2132 44.114 43.2132Z" fill="#2B2D42"/>
</g>
<defs>
<clipPath id="clip0_1101_264">
<rect width="61" height="61" fill="white"/>
</clipPath>
</defs>
</svg>
