<svg width="82" height="82" viewBox="0 0 82 82" fill="none" xmlns="http://www.w3.org/2000/svg">
<g clip-path="url(#clip0_209_395)">
<path d="M23.6344 51.28C23.6219 51.1524 23.5819 51.0348 23.5819 50.9072V49.8136C23.5819 49.2931 23.6669 48.7801 23.8372 48.2922C23.8372 48.2922 26.5624 44.6436 27.8512 40.3569C26.4397 37.3789 25.1585 33.6729 25.1585 29.9993C25.1585 29.146 25.2211 28.3202 25.3087 27.5068C23.4695 25.5799 20.9845 24.4888 18.2392 24.4888C12.5712 24.4888 7.97179 29.1133 7.97179 36.3003C7.97179 42.0509 12.6514 48.292 12.6514 48.292C12.8165 48.78 12.9017 49.293 12.9017 49.8135V50.907C12.9017 52.2709 12.1059 53.5121 10.8647 54.0802L3.43488 57.1156C1.70807 57.9115 0.479356 59.498 0.136622 61.3647L0.00897716 62.9988C-0.0560463 63.8497 0.234157 64.688 0.814723 65.3112C1.39273 65.9393 2.20616 66.2921 3.05947 66.2921H15.2038L15.7017 59.8934L15.7342 59.7207C16.3424 56.365 18.5596 53.5121 21.6575 52.0858L23.6344 51.28Z" fill="white"/>
<path d="M81.8635 61.3647C81.5232 59.498 80.2945 57.9113 78.5678 57.1156L71.1331 54.0802C69.8918 53.5121 69.101 52.2709 69.101 50.907V49.8135C69.101 49.293 69.1836 48.78 69.3537 48.292C69.3537 48.292 74.0308 42.0509 74.0308 36.3003C74.0308 29.1133 69.4338 24.4888 63.7558 24.4888C61.0157 24.4888 58.5307 25.5799 56.6863 27.5117C56.7765 28.3226 56.839 29.1458 56.839 29.9991C56.839 33.6702 55.5603 37.3764 54.1514 40.3542C55.4376 44.6409 58.1678 48.292 58.1678 48.292C58.3329 48.78 58.4205 49.293 58.4205 49.8135V50.907C58.4205 51.0347 58.3779 51.1522 58.3654 51.2799L60.2072 52.0307C63.4353 53.5072 65.6525 56.3599 66.2681 59.7156L66.2983 59.8908L66.7938 66.2921H78.9431C79.7964 66.2921 80.6097 65.9393 81.1853 65.3112C81.7658 64.688 82.0562 63.8497 81.991 62.9988L81.8635 61.3647Z" fill="white"/>
<path d="M58.9165 55.1912L49.9228 51.5152C48.4213 50.8244 47.463 49.323 47.463 47.6764V46.3501C47.463 45.7246 47.5631 45.1014 47.7708 44.5083C47.7708 44.5083 53.4264 36.961 53.4264 29.9991C53.4264 21.3006 47.8635 15.7078 40.9992 15.7078C34.1375 15.7078 28.5721 21.3007 28.5721 29.9991C28.5721 36.961 34.2326 44.5083 34.2326 44.5083C34.4354 45.1014 34.5404 45.7246 34.5404 46.3501V47.6764C34.5404 49.323 33.5745 50.8244 32.0755 51.5152L23.0817 55.1912C20.9922 56.1496 19.5032 58.0715 19.0929 60.3337L18.6299 66.292H40.9992H63.3686L62.9107 60.3337C62.4951 58.0717 61.0061 56.1498 58.9165 55.1912Z" fill="white"/>
</g>
<defs>
<clipPath id="clip0_209_395">
<rect width="82" height="82" fill="white"/>
</clipPath>
</defs>
</svg>
