<svg width="55" height="53" viewBox="0 0 55 53" fill="none" xmlns="http://www.w3.org/2000/svg">
<path d="M12.0557 14.007C5.39748 14.007 0 19.3822 0 26.0135C0 32.6424 5.39748 38.0177 12.0557 38.0177C12.0557 38.0177 11.9974 42.4775 8.35822 48.8963C7.95399 50.1825 8.67457 51.5521 9.9672 51.9523C10.8844 52.2395 11.8494 51.9603 12.4727 51.3104C20.8405 42.1983 24.1159 31.4739 24.1159 26.0135C24.1159 19.3822 18.7186 14.007 12.0557 14.007Z" fill="white"/>
<path d="M42.2482 38.058C49.0104 38.058 54.4922 32.6826 54.4922 26.0515C54.4922 19.4225 49.0104 14.0473 42.2482 14.0473C42.2482 14.0473 42.3074 9.58747 46.0034 3.1686C46.414 1.88245 45.682 0.51282 44.3693 0.11267C43.4378 -0.174558 42.4576 0.104632 41.8248 0.754538C33.3262 9.86666 29.9994 20.591 29.9994 26.0515C29.9994 32.6827 35.4812 38.058 42.2482 38.058Z" fill="white"/>
</svg>
