<svg width="23" height="20" viewBox="0 0 23 20" fill="none" xmlns="http://www.w3.org/2000/svg">
<g clip-path="url(#clip0_338_336)">
<path d="M21.7053 5.94604H15.7445L13.0476 8.55727C12.6824 8.91082 12.1989 9.10557 11.6869 9.10557C11.1617 9.10557 10.6698 8.90219 10.3017 8.53292C9.59031 7.81875 9.5643 6.69134 10.2144 5.94609H1.29666C0.581098 5.94604 0.000976562 6.51776 0.000976562 7.22326V7.64901C0.000976562 8.34393 0.564836 8.90856 1.2667 8.92428L2.66363 17.355C2.83258 18.3759 3.72814 19.1257 4.77774 19.1257H18.2219C19.2718 19.1257 20.1668 18.3759 20.336 17.355L21.7333 8.92428C22.4355 8.90953 23.001 8.34486 23.001 7.64901V7.22326C23.001 6.51776 22.4209 5.94604 21.7053 5.94604ZM6.89967 16.8238C6.78476 16.9492 6.62102 17.0211 6.44978 17.0211H6.11156C5.80978 17.0211 5.55422 16.8023 5.51186 16.5081L4.768 11.3247C4.74356 11.1534 4.79531 10.9802 4.91022 10.8496C5.02517 10.7193 5.19219 10.6442 5.36761 10.6442H5.89895C6.20918 10.6442 6.46896 10.8749 6.50122 11.1788L7.05205 16.3624C7.06961 16.5305 7.01427 16.698 6.89967 16.8238ZM10.3661 16.8411C10.2525 16.956 10.0962 17.0211 9.93311 17.0211H9.58677C9.26638 17.0211 9.00143 16.775 8.98257 16.46L8.67004 11.2763C8.66025 11.1123 8.7195 10.9513 8.83379 10.8319C8.94834 10.7122 9.10758 10.6442 9.27456 10.6442H9.81434C10.1434 10.6442 10.4121 10.9034 10.4195 11.2272L10.5387 16.4108C10.5423 16.5713 10.4801 16.7266 10.3661 16.8411ZM14.0175 16.46C13.9983 16.775 13.7333 17.0211 13.4129 17.0211H13.0665C12.9035 17.0211 12.7475 16.956 12.6339 16.8411C12.5196 16.7266 12.4575 16.5713 12.461 16.4109L12.5805 11.2272C12.5877 10.9035 12.8566 10.6442 13.1858 10.6442H13.7255C13.8919 10.6442 14.0517 10.7123 14.166 10.832C14.2802 10.9513 14.3395 11.1124 14.3297 11.2763L14.0175 16.46ZM18.2317 11.3247L17.4878 16.5081C17.4458 16.8023 17.1899 17.0211 16.8885 17.0211H16.5502C16.3787 17.0211 16.2149 16.9492 16.1003 16.8238C15.9854 16.698 15.93 16.5305 15.948 16.3624L16.4985 11.1788C16.5307 10.8749 16.7908 10.6442 17.1008 10.6442H17.6321C17.8076 10.6442 17.9742 10.7193 18.0892 10.8496C18.2044 10.9802 18.2564 11.1534 18.2317 11.3247Z" fill="white"/>
<path d="M12.4721 7.97951L17.8574 2.76635C18.2988 2.33865 18.305 1.63957 17.8714 1.20452C17.4377 0.769474 16.728 0.763054 16.2866 1.19045L10.9017 6.40422C10.4602 6.83157 10.454 7.53065 10.8873 7.9657C11.3213 8.40075 12.0303 8.40717 12.4721 7.97951Z" fill="white"/>
</g>
<defs>
<clipPath id="clip0_338_336">
<rect width="23" height="20" fill="white" transform="translate(0.000976562)"/>
</clipPath>
</defs>
</svg>
