<svg width="135" height="108" viewBox="0 0 135 108" fill="none" xmlns="http://www.w3.org/2000/svg">
<g clip-path="url(#clip0_225_42)">
<path d="M113.787 70.9525C113.775 70.3882 113.515 69.8606 113.081 69.5215L110.453 67.4707C112.318 66.8644 113.849 65.916 115.045 64.9486C118.19 62.404 119.676 59.2212 119.738 59.0869C119.972 58.579 119.968 57.9874 119.729 57.4822C119.489 56.9766 119.04 56.6142 118.51 56.498L115.256 55.7833C116.705 54.4003 117.706 52.853 118.393 51.4392C120.191 47.7403 120.226 44.2019 120.226 44.0532C120.229 43.4893 119.982 42.9554 119.556 42.6052C119.132 42.256 118.575 42.1278 118.047 42.2599L104.252 45.7123C104.042 45.3822 103.814 45.0685 103.571 44.7749C102.688 43.7124 101.709 42.8356 100.659 42.1671C98.4419 40.7553 95.9106 40.2753 93.3682 40.7544C92.3692 37.5335 90.4694 35.723 88.9207 34.737C87.9303 34.1062 86.8028 33.6274 85.5694 33.3134C85.2203 33.2247 84.8621 33.1579 84.4975 33.1125L81.1851 18.7917C81.0582 18.2431 80.6954 17.785 80.2031 17.5512C79.7099 17.3167 79.1404 17.3307 78.6585 17.5893C78.5313 17.6577 75.5175 19.2995 73.168 22.6469C72.2698 23.9263 71.4003 25.5571 70.875 27.5285L68.783 24.8395C68.4423 24.4022 67.9273 24.1508 67.3858 24.1584C66.8444 24.1665 66.3361 24.4321 66.0075 24.8796C65.9206 24.9978 63.871 27.8219 63.1231 31.893C62.8387 33.4406 62.7231 35.2898 63.052 37.2931L60.1005 35.7916C59.613 35.5437 59.0429 35.5427 58.5545 35.7892C58.0662 36.0352 57.7137 36.5014 57.5991 37.0531C57.5691 37.1969 56.878 40.6191 57.869 44.6157C58.5952 47.5439 60.3438 51.2235 64.4754 53.8536C65.6316 54.5897 66.9744 55.2435 68.5334 55.7758C69.1573 55.989 70.3214 56.3463 71.7949 56.6207C72.5265 59.639 73.6543 62.8557 75.1798 66.2514C75.6143 67.2187 76.3072 68.0245 77.1833 68.5822C78.0595 69.1401 79.0648 69.4152 80.0905 69.3779C83.7016 69.2459 86.9769 68.8254 89.9 68.1268C90.8154 69.3854 91.6633 70.3152 92.1341 70.8009C93.2993 72.0033 94.4695 72.949 95.6259 73.6853C99.7568 76.315 103.703 76.2618 106.541 75.6024C110.414 74.7024 113.03 72.5057 113.139 72.4125C113.559 72.0552 113.798 71.5168 113.787 70.9525ZM94.621 68.1936C94.2769 67.8386 93.9283 67.4469 93.5827 67.0312C94.7321 66.6132 95.8135 66.1429 96.8181 65.6166C97.8923 65.0538 98.8817 64.4241 99.7854 63.7385L108.908 70.8571C105.983 72.3871 100.285 74.037 94.621 68.1936ZM60.855 40.2642L71.0486 45.4497C70.8735 46.5975 70.7844 47.798 70.7913 49.0472C70.7979 50.2232 70.8874 51.4451 71.0542 52.7072C70.5581 52.5793 70.0806 52.4386 69.6346 52.2863C62.0539 49.6986 60.8751 43.6666 60.855 40.2642ZM67.6408 29.2102L74.2441 37.6971C74.2393 37.703 74.2344 37.7087 74.2298 37.7144C73.2829 38.9159 72.5271 40.2986 71.9657 41.8276L67.4216 39.516C65.5468 35.3814 66.609 31.4989 67.6408 29.2102ZM78.3495 22.235L80.9156 33.3295C80.4885 33.4309 80.0636 33.5571 79.6446 33.7118C78.6571 34.0763 77.7179 34.5802 76.8474 35.2046L73.9205 31.4423C73.9277 26.8793 76.4773 23.8454 78.3495 22.235ZM110.542 54.7478L105.914 53.7315C106.055 52.6347 106.06 51.529 105.922 50.4418C105.866 49.9979 105.785 49.5607 105.682 49.1321L116.373 46.4568C116.163 47.4306 115.815 48.6017 115.241 49.7823C114.161 52.0054 112.586 53.6621 110.542 54.7478ZM112.877 62.0495C110.984 63.5803 108.878 64.3775 106.58 64.4488L102.47 61.2417C103.523 60.0274 104.378 58.7098 104.961 57.279L104.962 57.2778L115.273 59.5418C114.682 60.3297 113.883 61.2354 112.877 62.0495Z" fill="#F3F3F3"/>
<path d="M97.3805 34.2512C102.753 37.6714 109.034 39.6593 110.958 36.3911C112.881 33.1228 108.322 28.2088 102.95 24.7886C97.5777 21.3684 91.2962 19.3804 89.3725 22.6488C87.449 25.917 92.0082 30.8309 97.3805 34.2512ZM101.106 27.9212C105.411 30.6619 107.424 33.3289 107.805 34.3839C106.729 34.5108 103.529 33.8594 99.2242 31.1187C94.9192 28.3779 92.9061 25.711 92.5253 24.656C93.6018 24.5288 96.801 25.1803 101.106 27.9212Z" fill="#F3F3F3"/>
</g>
<g clip-path="url(#clip1_225_42)">
<path d="M94.7809 69.8927C94.3541 69.2002 93.6448 68.7503 92.8571 68.6723L88.0903 68.203C89.9645 65.9737 91.1736 63.5835 91.9523 61.4348C94.0006 55.7829 93.5194 50.6508 93.4978 50.4351C93.4168 49.6188 92.9797 48.8862 92.3122 48.4479C91.6442 48.0094 90.8208 47.9144 90.0774 48.189L85.51 49.8757C86.2993 47.0101 86.4116 44.2948 86.2311 41.9938C85.7596 35.974 83.2147 31.5481 83.1066 31.3628C82.6972 30.66 81.9995 30.1919 81.2147 30.0933C80.4318 29.9949 79.646 30.2762 79.0867 30.858L64.4658 46.0654C63.9624 45.8219 63.4503 45.6118 62.9331 45.4395C61.0588 44.8173 59.2007 44.5022 57.4065 44.5022C53.6175 44.5022 50.1202 45.9085 47.3106 48.5159C43.7126 45.303 40.0268 44.556 37.3806 44.556C35.6881 44.5557 33.9364 44.8528 32.1737 45.4385C31.6749 45.6044 31.1808 45.8048 30.6945 46.037L16.1009 30.8583C15.5419 30.2769 14.7558 29.9946 13.9729 30.0936C13.1884 30.1923 12.4907 30.6603 12.0809 31.3631C11.9729 31.5488 9.42797 35.9743 8.95643 41.9942C8.77599 44.2951 8.88824 47.0101 9.67757 49.8761L5.11015 48.1894C4.36681 47.9154 3.54275 48.0104 2.87532 48.4483C2.20822 48.8869 1.77078 49.6191 1.68972 50.4354C1.66817 50.6512 1.18666 55.7832 3.23525 61.4351C4.01396 63.5838 5.22304 65.9737 7.0973 68.2033L2.33045 68.6727C1.54305 68.7503 0.833815 69.2002 0.406986 69.893C-0.0198431 70.5852 -0.116981 71.4436 0.144198 72.22C0.212066 72.4224 1.85666 77.2229 6.01205 81.4062C9.05679 84.4712 13.9221 87.661 20.9813 87.6606C22.9569 87.6606 25.1042 87.4107 27.4313 86.8387C28.3628 86.6099 30.0711 86.1328 32.1033 85.3079C35.2207 88.4806 38.9757 91.5863 43.3559 94.5998C44.6036 95.4582 46.0542 95.9115 47.5512 95.9115C49.0484 95.9115 50.4991 95.4579 51.7468 94.5998C56.1386 91.5783 59.9019 88.4638 63.0241 85.2824C65.0827 86.1225 66.8167 86.6072 67.7572 86.8383C70.085 87.4107 72.2313 87.6603 74.2072 87.6603C81.2655 87.66 86.1321 84.4709 89.1765 81.4059C93.3319 77.2226 94.9765 72.4221 95.0443 72.2197C95.3049 71.4432 95.2077 70.5852 94.7809 69.8927ZM68.9409 81.6297C68.2535 81.4608 67.5336 81.2497 66.8 81.0065C67.9228 79.5774 68.9229 78.1372 69.7865 76.688C70.7099 75.1385 71.479 73.5729 72.1008 72.0056L88.647 73.6348C86.1311 77.8509 80.2555 84.4107 68.9409 81.6297ZM6.5402 73.6348L23.0035 72.0136C23.6256 73.5789 24.393 75.1415 25.3155 76.6887C26.184 78.1452 27.1891 79.5931 28.3197 81.0299C27.6095 81.2634 26.9132 81.4665 26.2473 81.63C14.932 84.4123 9.05421 77.8478 6.5402 73.6348ZM6.8879 54.5257L21.3039 59.8491C21.3023 59.8601 21.3004 59.8712 21.2988 59.8819C21.0009 62.1246 21.073 64.4412 21.4937 66.7859L14.1546 67.5085C8.79979 63.8531 7.27967 58.1868 6.8879 54.5257ZM15.0954 37.382L26.4011 49.1411C25.9444 49.6051 25.5085 50.0982 25.101 50.6221C24.1402 51.8565 23.3416 53.226 22.7163 54.691L16.3261 52.3308C12.997 46.6535 13.9465 40.8651 15.0954 37.382ZM78.893 52.3191L72.3973 54.7181C71.7704 53.2431 70.9682 51.8645 70.0013 50.6224C69.6067 50.1152 69.1856 49.6362 68.7447 49.1846L80.0757 37.3994C80.5267 38.7763 80.9516 40.5069 81.1018 42.4284C81.3848 46.0467 80.6399 49.3519 78.893 52.3191ZM87.1366 59.547C85.9043 62.9472 83.8693 65.605 81.0661 67.5115L73.6115 66.7776C74.0313 64.4355 74.13 62.1212 73.8084 59.8812V59.8792L88.2807 54.5337C88.1224 55.9809 87.7918 57.7389 87.1366 59.547Z" fill="#E0E0E0"/>
<path d="M47.5407 37.2575C56.72 37.2575 65.9819 34.7576 65.9819 29.1733C65.9819 23.5889 56.72 21.089 47.5407 21.089C38.3615 21.089 29.0996 23.5886 29.0996 29.1733C29.0996 34.7576 38.3612 37.2575 47.5407 37.2575ZM47.5407 26.4415C54.8965 26.4415 59.3498 28.1633 60.5949 29.1733C59.3498 30.1829 54.8965 31.905 47.5407 31.905C40.1849 31.905 35.7317 30.1832 34.4866 29.1733C35.7317 28.1633 40.1846 26.4415 47.5407 26.4415Z" fill="#E0E0E0"/>
</g>
<defs>
<clipPath id="clip0_225_42">
<rect width="66.0405" height="67.2301" fill="white" transform="matrix(0.843552 0.537048 -0.507232 0.86181 79.291 0)"/>
</clipPath>
<clipPath id="clip1_225_42">
<rect width="95.188" height="99" fill="white" transform="translate(0 9)"/>
</clipPath>
</defs>
</svg>
